# AST/ASF file generated using VICON BodyLanguage
# -----------------------------------------------
:version 1.10
:name VICON
:units
  mass 1.0
  length 0.45
  angle deg
:documentation
   .ast/.asf automatically generated from VICON data using
   VICON BodyBuilder and BodyLanguage model FoxedUp or BRILLIANT.MOD
:root
   order TX TY TZ RX RY RZ
   axis XYZ
   position 0 0 0  
   orientation 0 0 0 
:bonedata
  begin
     id 1 
     name lhipjoint
     direction 0.570549 -0.739093 0.358072 
     length 2.41801 
     axis 0 0 0  XYZ
  end
  begin
     id 2 
     name lfemur
     direction 0.34202 -0.939693 0  
     length 7.44434  
     axis 0 0 20  XYZ
    dof rx ry rz
    limits (-160.0 20.0)
           (-70.0 70.0)
           (-60.0 70.0)
  end
  begin
     id 3 
     name ltibia
     direction 0.34202 -0.939693 0   
     length 7.60047   
     axis 0 0 20   XYZ
    dof rx
    limits (-10.0 170.0)
  end
  begin
     id 4 
     name lfoot
     direction 0.0909041 -0.249757 0.964032   
     length 2.03437   
     axis -90 7.62852e-016 20   XYZ
    dof rx rz
    limits (-45.0 90.0)
           (-70.0 20.0)
  end
  begin
     id 5 
     name ltoes
     direction 1.53547e-011 -4.2174e-011 1   
     length 1.02054   
     axis -90 7.62852e-016 20   XYZ
    dof rx
    limits (-90.0 20.0)
  end
  begin
     id 6 
     name rhipjoint
     direction -0.558096 -0.746754 0.361784   
     length 2.3932  
     axis 0 0 0  XYZ 
  end
  begin
     id 7 
     name rfemur
     direction -0.34202 -0.939693 0   
     length 7.3886   
     axis 0 0 -20   XYZ
    dof rx ry rz
    limits (-160.0 20.0)
           (-70.0 70.0)
           (-70.0 60.0)
  end
  begin
     id 8 
     name rtibia
     direction -0.34202 -0.939693 0   
     length 7.4839   
     axis 0 0 -20   XYZ
    dof rx
    limits (-10.0 170.0)
 end
 begin
     id 9 
     name rfoot
     direction -0.114619 -0.314914 0.942174   
     length 2.25127  
     axis -90 -7.62852e-016 -20   XYZ
    dof rx rz
    limits (-45.0 90.0)
           (-20.0 70.0)
  end
  begin
     id 10 
     name rtoes
     direction -1.53518e-011 -4.21881e-011 1   
     length 1.11821   
     axis -90 -7.62852e-016 -20   XYZ
    dof rx
    limits (-90.0 20.0)
  end
  begin
     id 11 
     name lowerback
     direction -0.00902269 0.996426 -0.0839821   
     length 2.25052   
     axis 0 0 0   XYZ
    dof rx ry rz
    limits (-20.0 45.0)
           (-30.0 30.0)
           (-30.0 30.0)
  end
  begin
     id 12 
     name upperback
     direction 0.0370973 0.999169 -0.0168941   
     length 2.24876   
     axis 0 0 0   XYZ
    dof rx ry rz
    limits (-20.0 45.0)
           (-30.0 30.0)
           (-30.0 30.0)
  end
  begin
     id 13 
     name thorax
     direction 0.0402726 0.998931 0.0227027   
     length 2.26408   
     axis 0 0 0   XYZ
    dof rx ry rz
    limits (-20.0 45.0)
           (-30.0 30.0)
           (-30.0 30.0)
  end
  begin
     id 14 
     name lowerneck
     direction -0.0733697 0.98508 0.155675   
     length 1.58204   
     axis 0 0 0   XYZ
    dof rx ry rz
    limits (-20.0 45.0)
           (-30.0 30.0)
           (-30.0 30.0)
  end
  begin
     id 15 
     name upperneck
     direction 0.0426554 0.993501 -0.105526   
     length 1.61222   
     axis 0 0 0   XYZ
    dof rx ry rz
    limits (-20.0 45.0)
           (-30.0 30.0)
           (-30.0 30.0)
  end
  begin
     id 16
     name head
     direction 0.020792 0.998384 -0.0528868  
     length 1.61527  
     axis 0 0 0   XYZ
    dof rx ry rz
    limits (-20.0 45.0)
           (-30.0 30.0)
           (-30.0 30.0)
  end
  begin
     id 17 
     name lclavicle
     direction 0.967109 0.155462 -0.201325  
     length 3.59357  
     axis 0 0 0   XYZ
    dof ry rz
    limits (-20.0 10.0)
           (0.0 20.0)
  end
  begin
     id 18 
     name lhumerus
     direction 1 -4.48968e-011 2.38195e-027   
     length 5.38154   
     axis 180 -30 -90   XYZ
    dof rx ry rz
    limits (-60.0 90.0)
           (-90.0 90.0)
           (-90.0 90.0)
  end
  begin
     id 19
     name lradius
     direction 1 -4.48961e-011 4.85371e-027   
     length 3.33312   
     axis 180 -30 -90   XYZ
    dof rx
    limits (-10.0 170.0)
  end
  begin
     id 20
     name lwrist
     direction 1 -4.48961e-011 4.76515e-027   
     length 1.66656   
     axis -3.27502e-015 90 90   XYZ
    dof ry
    limits (-180.0 0.0)
 end
  begin
     id 21 
     name lhand
     direction 1 -4.48951e-011 9.53074e-027   
     length 0.710789   
     axis -6.08098e-015 90 90   XYZ
    dof rx rz
    limits (-90.0 90.0)
           (-45.0 45.0)
  end
  begin
     id 22 
     name lfingers
     direction 1 -4.48953e-011 1.90613e-026   
     length 0.573057   
     axis -1.21619e-014 90 90   XYZ
    dof rx
    limits (0.0 90.0)
  end
  begin
     id 23
     name lthumb
     direction 0.707107 -6.34973e-011 0.707107   
     length 0.822798   
     axis -90 45 -9.86923e-015   XYZ
    dof rx rz
    limits (-45.0 45.0)
           (-45.0 45.0)
  end
  begin
     id 24 
     name rclavicle
     direction -0.9585 0.265289 -0.104398   
     length 3.42039  
     axis 0 0 0   XYZ 
    dof ry rz
    limits (-10.0 20.0)
           (-20.0 0.0)
  end
  begin
     id 25 
     name rhumerus
     direction -1 -4.48977e-011 2.21478e-027  
     length 5.16954   
     axis 180 30 90   XYZ
    dof rx ry rz
    limits (-90.0 60.0)
           (-90.0 90.0)
           (-90.0 90.0)
  end
  begin
     id 26 
     name rradius
     direction -1 -4.48967e-011 5.63677e-027   
     length 3.38287   
     axis 180 30 90   XYZ
    dof rx
    limits (-10.0 170.0)
  end
  begin
     id 27 
     name rwrist
     direction -1 -4.48967e-011 4.76501e-027   
     length 1.69144   
     axis -3.27502e-015 -90 -90   XYZ
    dof ry
    limits (-180.0 0.0)
  end
  begin
     id 28
     name rhand
     direction -1 -4.48902e-011 9.53292e-027   
     length 0.817967   
     axis -6.08098e-015 -90 -90   XYZ
    dof rx rz
    limits (-90.0 90.0)
           (-45.0 45.0)
  end
  begin
     id 29
     name rfingers
     direction -1 -4.49012e-011 1.90561e-026   
     length 0.659466   
     axis -1.21619e-014 -90 -90   XYZ
    dof rx
    limits (0.0 90.0)
  end
  begin
     id 30
     name rthumb
     direction -0.707107 -6.34944e-011 0.707107   
     length 0.946865   
     axis -90 -45 9.86923e-015   XYZ
    dof rx rz
    limits (-45.0 45.0)
           (-45.0 45.0)
  end
:hierarchy
  begin
    root lhipjoint rhipjoint lowerback
    lhipjoint lfemur
    lfemur ltibia
    ltibia lfoot
    lfoot ltoes
    rhipjoint rfemur
    rfemur rtibia
    rtibia rfoot
    rfoot rtoes
    lowerback upperback
    upperback thorax
    thorax lowerneck lclavicle rclavicle
    lowerneck upperneck
    upperneck head
    lclavicle lhumerus
    lhumerus lradius
    lradius lwrist
    lwrist lhand lthumb
    lhand lfingers
    rclavicle rhumerus
    rhumerus rradius
    rradius rwrist
    rwrist rhand rthumb
    rhand rfingers
  end

#!OML:ASF F:\twosubjects\two\wednesday\Session 1\Justin1.ASF
:FULLY-SPECIFIED
:DEGREES
214
root 15.3808 17.9601 17.494 2.00366 0.67549 1.01074
lowerback 3.45211 -3.09238 -4.94299
upperback 0.125131 -4.26997 3.18129
thorax -1.19891 -2.10847 6.24557
lowerneck -2.51956 -13.1726 -18.2052
upperneck 8.63318 -18.2774 14.6135
head 6.05651 -8.9914 5.95545
rclavicle -1.96797e-014 4.77083e-015
rhumerus -24.2799 -15.7073 -81.7918
rradius 22.1254
rwrist 0.442436
rhand -14.9504 19.5967
rfingers 7.12502
rthumb 11.2126 -10.0836
lclavicle -1.96797e-014 4.77083e-015
lhumerus -18.4004 4.06896 79.0151
lradius 47.028
lwrist -6.32444
lhand -5.76258 35.1393
lfingers 7.12502
lthumb 20.0606 64.1237
rfemur -25.9787 -0.660228 25.0331
rtibia 25.0516
rfoot 0.318549 -6.33217
rtoes 16.7357
lfemur 7.23235 1.42857 -17.2119
ltibia 35.6554
lfoot 8.11738 -8.0173
ltoes -8.93701
215
root 15.3644 17.9846 17.6745 1.86555 0.890466 0.23572
lowerback 3.66229 -3.10378 -3.99152
upperback 0.00638365 -4.25075 3.28102
thorax -1.5036 -2.09134 5.83006
lowerneck -0.909984 -13.0125 -18.7195
upperneck 7.24121 -18.2907 15.7146
head 5.51891 -9.05408 6.50536
rclavicle 5.04913e-014 1.35174e-014
rhumerus -25.0277 -21.6008 -79.1975
rradius 19.3093
rwrist 5.44214
rhand -15.2902 18.7045
rfingers 7.12502
rthumb 10.8848 -10.9934
lclavicle 5.04913e-014 1.35174e-014
lhumerus -19.3234 3.52174 79.4436
lradius 46.7671
lwrist -6.47023
lhand -5.89175 35.2071
lfingers 7.12502
lthumb 19.9364 64.2045
rfemur -25.315 -1.32212 26.1393
rtibia 25.5183
rfoot -0.523112 -5.84652
rtoes 15.4279
lfemur 6.16206 1.09653 -16.1818
ltibia 37.891
lfoot 10.1599 -9.00624
ltoes -8.19545
216
root 15.3574 18.0023 17.8619 1.78756 1.21021 0.18703
lowerback 3.56528 -3.20381 -3.93767
upperback -0.0090924 -4.37779 3.40111
thorax -1.4434 -2.15704 5.92315
lowerneck 0.500411 -12.8846 -19.4469
upperneck 5.70334 -18.2828 16.7762
head 4.99056 -9.11142 7.06703
rclavicle 1.71949e-014 1.66979e-014
rhumerus -26.1105 -27.3459 -75.8604
rradius 16.9786
rwrist 10.7194
rhand -15.6956 17.9659
rfingers 7.12502
rthumb 10.4938 -11.7521
lclavicle 1.71949e-014 1.66979e-014
lhumerus -19.9749 3.45218 80.138
lradius 46.3323
lwrist -6.7056
lhand -5.62382 35.0477
lfingers 7.12502
lthumb 20.1939 64.0181
rfemur -24.5077 -2.02529 26.3027
rtibia 25.6249
rfoot -1.38203 -5.43948
rtoes 15.9117
lfemur 4.90401 0.695415 -16.0308
ltibia 40.3671
lfoot 11.6236 -10.326
ltoes -8.55585
217
root 15.3579 18.0223 18.0883 1.28274 1.56956 0.889593
lowerback 3.35396 -3.39418 -4.61295
upperback 0.303439 -4.65586 3.2432
thorax -0.925111 -2.31726 6.11712
lowerneck 0.151762 -13.0476 -19.2944
upperneck 5.97819 -18.4375 16.3876
head 5.10569 -9.17442 6.87066
rclavicle 1.05356e-014 3.26007e-014
rhumerus -27.6327 -32.1282 -72.6608
rradius 15.6395
rwrist 15.3206
rhand -16.0478 16.3501
rfingers 7.12502
rthumb 10.1541 -13.3849
lclavicle 1.05356e-014 3.26007e-014
lhumerus -20.3979 3.52984 80.6447
lradius 45.679
lwrist -6.96452
lhand -4.71522 35.0282
lfingers 7.12502
lthumb 21.067 63.9038
rfemur -23.0478 -3.21575 25.5814
rtibia 25.6892
rfoot -2.29644 -4.69802
rtoes 14.8715
lfemur 4.32109 0.180412 -16.8024
ltibia 42.7839
lfoot 12.8123 -11.0747
ltoes -5.69133
218
root 15.3191 18.0399 18.2425 1.43219 1.24331 -0.578146
lowerback 3.16751 -3.30757 -3.36791
upperback 0.433972 -4.48689 3.61487
thorax -0.775418 -2.24354 5.78017
lowerneck -0.906472 -13.4199 -18.7856
upperneck 6.85876 -18.8118 15.7644
head 5.50393 -9.30741 6.45838
rclavicle -3.96575e-014 -1.66979e-014
rhumerus -29.4235 -36.6014 -69.7031
rradius 14.9823
rwrist 19.4493
rhand -16.3906 13.6692
rfingers 7.12502
rthumb 9.82333 -16.0816
lclavicle -3.96575e-014 -1.66979e-014
lhumerus -20.5703 3.26508 80.9126
lradius 44.8789
lwrist -7.19471
lhand -4.34263 34.8687
lfingers 7.12502
lthumb 21.4249 63.704
rfemur -22.5478 -1.8545 27.2634
rtibia 25.5473
rfoot -2.6926 -5.68193
rtoes 14.1417
lfemur 2.54518 0.367109 -14.8366
ltibia 45.4632
lfoot 14.0725 -11.701
ltoes -1.69586
219
root 15.301 18.0538 18.406 1.39452 1.10133 -1.51965
lowerback 2.64913 -3.16935 -2.35562
upperback 0.912515 -4.27103 3.74748
thorax -0.0837261 -2.16035 5.2887
lowerneck -2.25403 -14.0322 -18.5267
upperneck 7.50555 -19.4906 15.566
head 6.00032 -9.56598 6.14681
rclavicle -5.32246e-014 -1.59028e-015
rhumerus -30.5813 -39.2955 -67.7282
rradius 14.8153
rwrist 21.3959
rhand -16.8338 11.0649
rfingers 7.12502
rthumb 9.39574 -18.7057
lclavicle -5.32246e-014 -1.59028e-015
lhumerus -20.2465 2.75108 81.2613
lradius 44.0667
lwrist -7.49338
lhand -4.32915 34.713
lfingers 7.12502
lthumb 21.4379 63.5469
rfemur -21.7321 -1.34019 28.3274
rtibia 25.2387
rfoot -3.13492 -5.98216
rtoes 13.6754
lfemur 1.10979 0.336654 -13.6329
ltibia 48.0183
lfoot 14.4549 -12.02
ltoes -0.698616
220
root 15.2849 18.0673 18.5774 1.23247 1.00325 -2.36944
lowerback 3.43899 -3.01976 -1.4532
upperback 0.338148 -4.02658 3.96142
thorax -1.19098 -2.00624 5.07147
lowerneck 1.32799 -13.4264 -19.6222
upperneck 4.97138 -19.183 17.6657
head 4.91117 -9.57968 7.31386
rclavicle -3.23522e-014 -2.38542e-015
rhumerus -33.3267 -38.9235 -65.3856
rradius 15.1987
rwrist 20.9389
rhand -17.2929 9.12271
rfingers 7.12502
rthumb 8.95272 -20.6673
lclavicle -3.23522e-014 -2.38542e-015
lhumerus -21.9792 2.30116 81.7742
lradius 43.7456
lwrist -8.1775
lhand -3.82629 34.5223
lfingers 7.12502
lthumb 21.9208 63.3004
rfemur -20.6569 -1.1277 29.3054
rtibia 24.7364
rfoot -3.49178 -6.04565
rtoes 12.2182
lfemur -0.158773 0.258035 -12.543
ltibia 50.5279
lfoot 13.9768 -12.125
ltoes -1.60365
221
root 15.266 18.0784 18.744 0.91306 0.745678 -2.86886
lowerback 3.5666 -2.84632 -0.940195
upperback 0.576359 -3.77923 3.98812
thorax -1.07286 -1.88897 4.80047
lowerneck -0.994281 -14.5271 -18.829
upperneck 7.46446 -20.3792 15.6193
head 5.96721 -10.0627 6.15756
rclavicle 1.99779e-014 -4.37326e-014
rhumerus -35.098 -41.0058 -62.968
rradius 14.8615
rwrist 22.4305
rhand -17.9491 8.28021
rfingers 7.12502
rthumb 8.31948 -21.536
lclavicle 1.99779e-014 -4.37326e-014
lhumerus -22.4328 2.14382 82.0866
lradius 43.2802
lwrist -9.15203
lhand -3.24097 34.1815
lfingers 7.12502
lthumb 22.4827 62.8928
rfemur -19.512 -0.810828 29.9207
rtibia 24.4581
rfoot -3.81981 -6.08805
rtoes 12.0644
lfemur -1.12376 0.4685 -11.7563
ltibia 52.6235
lfoot 13.0841 -12.2649
ltoes -3.39642
222
root 15.2481 18.0973 18.9145 0.664995 0.486059 -2.72717
lowerback 3.4912 -2.69469 -1.0654
upperback 0.846756 -3.5912 3.82465
thorax -0.772152 -1.80251 4.68028
lowerneck -0.20619 -14.5066 -19.0631
upperneck 6.19727 -20.474 16.7975
head 5.62312 -10.1272 6.6244
rclavicle 3.43401e-014 1.82882e-014
rhumerus -36.2336 -41.6393 -61.7445
rradius 14.8115
rwrist 22.406
rhand -18.4328 7.50606
rfingers 7.12502
rthumb 7.85267 -22.3281
lclavicle 3.43401e-014 1.82882e-014
lhumerus -22.7147 1.96755 82.274
lradius 42.5812
lwrist -10.0029
lhand -2.72847 34.1213
lfingers 7.12502
lthumb 22.9745 62.7722
rfemur -18.4068 -0.739985 29.8561
rtibia 24.1767
rfoot -4.14757 -6.01429
rtoes 11.9534
lfemur -2.07007 0.760169 -11.715
ltibia 54.4144
lfoot 12.0673 -12.3658
ltoes -5.56026
223
root 15.2223 18.1252 19.1141 0.34247 0.441261 -2.59177
lowerback 3.578 -2.67223 -1.37667
upperback 0.821334 -3.57202 3.78355
thorax -0.831958 -1.79153 4.81832
lowerneck 1.61099 -14.2793 -19.3908
upperneck 5.00648 -20.4147 17.6555
head 5.08164 -10.1894 7.11246
rclavicle 4.82053e-015 4.6118e-014
rhumerus -36.0109 -34.5823 -65.2205
rradius 17.6402
rwrist 14.5043
rhand -18.42 5.3239
rfingers 7.12502
rthumb 7.86497 -24.5098
lclavicle 4.82053e-015 4.6118e-014
lhumerus -23.7411 2.05311 82.5276
lradius 41.9765
lwrist -10.8915
lhand -2.28856 33.9835
lfingers 7.12502
lthumb 23.3966 62.5813
rfemur -17.1689 -1.10678 29.8128
rtibia 24.0301
rfoot -4.71632 -5.8546
rtoes 10.7674
lfemur -2.81661 0.679103 -11.7156
ltibia 55.9977
lfoot 11.1183 -12.0371
ltoes -5.84429
